ply
format ascii 1.0
element vertex 28
property float x
property float y
property float z
property uchar red
property uchar green
property uchar blue
end_header
-0.0000 0.0000 -0.0000 0 255 128
1.0000 0.0000 -0.0000 0 255 128
1.0000 1.0000 -0.0000 0 255 128
-0.0000 1.0000 -0.0000 0 255 128
0.0000 0.0000 1.0000 175 79 128
1.0000 -0.0000 1.0000 175 79 128
1.0000 1.0000 1.0000 175 79 128
-0.0000 1.0000 1.0000 175 79 128
0.2491 1.4014 1.0980 192 62 128
0.6973 -0.1880 0.2340 41 213 128
-0.3838 1.2324 0.9017 158 96 128
0.9161 -0.4588 1.4549 254 0 128
1.1649 -0.0753 0.2727 47 207 128
-0.1332 0.1085 0.7871 137 117 128
0.3639 0.0825 0.9178 160 94 128
-0.2210 0.0843 0.5495 96 158 128
0.4121 1.0704 0.2995 52 202 128
0.5285 0.6848 0.0697 12 242 128
0.7151 -0.1590 0.0976 17 237 128
1.3978 1.4313 1.2126 212 42 128
0.1092 -0.3047 1.0263 179 75 128
0.3803 -0.2559 0.7428 130 124 128
-0.4312 1.3186 0.3882 68 186 128
0.8250 0.1234 0.7801 136 118 128
0.5934 -0.1303 1.4544 254 0 128
1.0503 1.3790 1.3422 235 19 128
0.6958 1.3437 0.1327 23 231 128
-0.1080 -0.4095 0.4880 85 169 128
